g Sea
v 8.800068 0.3379055 8.192247
v -8.699924 0.3379056 8.192247
v 8.800069 0.3379055 -9.307751
v -8.699924 0.3379056 -9.307751
v 28.823 0.3379055 -9.857594
v 22.26756 0.3379055 -22.62461
v 28.823 0.3379054 8.838519
v 22.26756 0.3379054 21.60555
v 10.65371 0.3379054 28.44217
v 8.159446 0.3379056 -30.18637
v -7.8545 0.3379056 -30.18637
v -21.96259 0.3379057 -22.62461
v -30.05825 0.3379057 -11.70656
v -30.05825 0.3379056 10.68749
v -21.96259 0.3379056 21.60555
v -10.34874 0.3379055 28.44217
v 22.26756 0.3379055 -22.62461
v 41.6841 0.3379055 -41.08018
v 53.8014 0.3379055 -17.48118
v 28.823 0.3379055 -9.857594
v 53.8014 0.3379053 17.07733
v 28.823 0.3379054 8.838519
v 41.6841 0.3379053 40.6763
v 22.26756 0.3379054 21.60555
v 20.21667 0.3379053 53.31334
v 10.65371 0.3379054 28.44217
v 8.159446 0.3379056 -30.18637
v 15.6062 0.3379056 -55.05753
v -7.8545 0.3379056 -30.18637
v -13.99451 0.3379056 -55.05753
v -21.96259 0.3379057 -22.62461
v -40.07236 0.3379058 -41.08019
v -30.05825 0.3379057 -11.70656
v -55.03665 0.3379058 -20.89886
v -30.05825 0.3379056 10.68749
v -55.03665 0.3379056 20.49502
v -21.96259 0.3379056 21.60555
v -40.07236 0.3379056 40.67629
v -10.34874 0.3379055 28.44217
v -18.60493 0.3379055 53.31334
vt 0.307136 0.500602
vt 0.501674 0.695141
vt 0.501674 0.306064
vt 0.696213 0.500602
vt 0.285202 0.077367
vt 0.5 0.008316
vt 0.077367 0.285202
vt 0.008316 0.5
vt 0.061422 0.705104
vt 0.740893 0.081088
vt 0.918912 0.259107
vt 0.991684 0.5
vt 0.960309 0.711365
vt 0.711366 0.960309
vt 0.5 0.991684
vt 0.294895 0.938578
vt 0.1343054 0.8469552
vt 0.1492707 0.8327306
vt 0.1586101 0.8509195
vt 0.139358 0.8567954
vt 0.1586101 0.8775556
vt 0.139358 0.8712054
vt 0.1492707 0.8957444
vt 0.1343054 0.8810456
vt 0.1327246 0.9054846
vt 0.1253539 0.886315
vt 0.1234315 0.841127
vt 0.1291711 0.8219575
vt 0.1110887 0.841127
vt 0.1063563 0.8219575
vt 0.1002149 0.8469552
vt 0.08625674 0.8327305
vt 0.09397513 0.8553703
vt 0.07472298 0.8482854
vt 0.09397513 0.8726306
vt 0.07472298 0.8801897
vt 0.1002149 0.8810456
vt 0.08625674 0.8957444
vt 0.1091663 0.886315
vt 0.1028028 0.9054846
vn 0 1 0
vn 0 1 0
vn 0 1 0
vn 0 1 0
vn 0 1 0
vn 0 1 0
vn 0 1 0
vn 0 1 0
vn 0 1 0
vn 0 1 0
vn 0 1 0
vn 0 1 0
vn 0 1 0
vn 0 1 0
vn 0 1 0
vn 0 1 0
vn 0 1 0
vn 0 1 0
vn 0 1 0
vn 0 1 0
vn 0 1 0
vn 0 1 0
vn 0 1 0
vn 0 1 0
vn 0 1 0
vn 0 1 0
vn 0 1 0
vn 0 1 0
vn 0 1 0
vn 0 1 0
vn 0 1 0
vn 0 1 0
vn 0 1 0
vn 0 1 0
vn 0 1 0
vn 0 1 0
vn 0 1 0
vn 0 1 0
vn 0 1 0
vn 0 1 0
g Sea_0
f 3/3/3 2/2/2 1/1/1
f 3/3/3 4/4/4 2/2/2
f 3/3/3 1/1/1 5/5/5
f 6/6/6 3/3/3 5/5/5
f 1/1/1 7/7/7 5/5/5
f 1/1/1 8/8/8 7/7/7
f 8/8/8 1/1/1 9/9/9
f 1/1/1 2/2/2 9/9/9
f 3/3/3 6/6/6 10/10/10
f 3/3/3 10/10/10 11/11/11
f 4/4/4 3/3/3 11/11/11
f 12/12/12 4/4/4 11/11/11
f 4/4/4 12/12/12 13/13/13
f 4/4/4 13/13/13 14/14/14
f 2/2/2 4/4/4 14/14/14
f 15/15/15 2/2/2 14/14/14
f 2/2/2 15/15/15 16/16/16
f 2/2/2 16/16/16 9/9/9
f 19/19/19 18/18/18 17/17/17
f 20/20/20 19/19/19 17/17/17
f 21/21/21 19/19/19 20/20/20
f 22/22/22 21/21/21 20/20/20
f 23/23/23 21/21/21 22/22/22
f 24/24/24 23/23/23 22/22/22
f 25/25/25 23/23/23 24/24/24
f 26/26/26 25/25/25 24/24/24
f 17/17/17 18/18/18 27/27/27
f 18/18/18 28/28/28 27/27/27
f 27/27/27 28/28/28 29/29/29
f 28/28/28 30/30/30 29/29/29
f 29/29/29 30/30/30 31/31/31
f 30/30/30 32/32/32 31/31/31
f 31/31/31 32/32/32 33/33/33
f 32/32/32 34/34/34 33/33/33
f 33/33/33 34/34/34 35/35/35
f 34/34/34 36/36/36 35/35/35
f 35/35/35 36/36/36 37/37/37
f 36/36/36 38/38/38 37/37/37
f 37/37/37 38/38/38 39/39/39
f 38/38/38 40/40/40 39/39/39
f 40/40/40 25/25/25 26/26/26
f 39/39/39 40/40/40 26/26/26
